<svg
    xmlns="http://www.w3.org/2000/svg"
    version="1.1"
    width="512"
    height="512"
    x="0"
    y="0"
    viewBox="0 0 128 128"
  >
    <g>
      <path
        d="M123 63.5c0-32.533-26.467-59-59-59S5 30.967 5 63.5c0 32.532 26.467 59 59 59a58.804 58.804 0 0 0 18.538-2.99A26.344 26.344 0 0 0 96.5 123.5c14.612 0 26.5-11.888 26.5-26.5 0-4.836-1.309-9.369-3.58-13.276A58.684 58.684 0 0 0 123 63.5zm-59-53c29.224 0 53 23.776 53 53a52.89 52.89 0 0 1-2.022 14.53C110.2 73.375 103.681 70.5 96.5 70.5c-2.86 0-5.613.461-8.195 1.303-7.421-4.78-15.985-7.303-24.871-7.303-19.205 0-36.087 11.783-42.891 29.284C14.537 85.193 11 74.755 11 63.5c0-29.224 23.776-53 53-53zm32.5 107C85.196 117.5 76 108.304 76 97s9.196-20.5 20.5-20.5S117 85.696 117 97s-9.196 20.5-20.5 20.5z"
        fill="#0199ec"
        data-original="#000000"
        class=""
      />
      <path
        d="M63.434 57.5c10.733 0 19.465-8.731 19.465-19.464s-8.732-19.464-19.465-19.464c-10.732 0-19.464 8.731-19.464 19.464S52.701 57.5 63.434 57.5zM106.84 94H99.5v-7.339a3 3 0 1 0-6 0V94h-7.339a3 3 0 1 0 0 6H93.5v7.339a3 3 0 1 0 6 0V100h7.34a3 3 0 1 0 0-6z"
        fill="#0199ec"
        data-original="#000000"
        class=""
      />
    </g>
</svg>