<svg xmlns="http://www.w3.org/2000/svg" width="68.659" height="67.152" viewBox="0 0 68.659 67.152"><g id="request" transform="translate(0 -5.5)"><path id="Path_54555" data-name="Path 54555" d="M8.086,60.93a33.576,33.576,0,1,1,50.971.012,56.825,56.825,0,0,0-25.5-5.808,56.833,56.833,0,0,0-25.474,5.8Z" fill="#0199ec"></path><path id="Path_54556" data-name="Path 54556" d="M109.98,59.34V94.586a33.578,33.578,0,0,1-50.98,0V47.241A2.741,2.741,0,0,1,61.741,44.5h33.4a2.741,2.741,0,0,1,1.938.8l12.1,12.1A2.74,2.74,0,0,1,109.98,59.34Z" transform="translate(-50.914 -33.655)" fill="#ececf1"></path><path id="Path_54557" data-name="Path 54557" d="M96.276,56.834V44.746a2.74,2.74,0,0,1,.8.557l12.1,12.1a2.741,2.741,0,0,1,.557.8H97.646A1.37,1.37,0,0,1,96.276,56.834ZM61.741,44.5A2.741,2.741,0,0,0,59,47.241V94.586a33.784,33.784,0,0,0,4.111,4.036V47.241A2.741,2.741,0,0,1,65.852,44.5Z" transform="translate(-50.914 -33.655)" fill="#d3d3d8"></path><path id="Path_54558" data-name="Path 54558" d="M129.964,105.87a1.37,1.37,0,0,1-1.37,1.37H120.37a1.37,1.37,0,0,1,0-2.741h8.223A1.37,1.37,0,0,1,129.964,105.87Z" transform="translate(-102.692 -85.433)" fill="#a1a1a7"></path><path id="Path_54559" data-name="Path 54559" d="M140,211.352a1.37,1.37,0,0,1,1.37-1.37h23.3a1.37,1.37,0,1,1,0,2.741h-23.3A1.37,1.37,0,0,1,140,211.352Zm27.272,4.111h-25.9a1.37,1.37,0,0,0,0,2.741h25.9a1.37,1.37,0,0,0,0-2.741Zm-25.9-8.223h8.223a1.37,1.37,0,1,0,0-2.741H141.37a1.37,1.37,0,0,0,0,2.741Zm13.7,0h12.334a1.37,1.37,0,0,0,0-2.741H155.075a1.37,1.37,0,0,0,0,2.741Zm-.137,13.7H141.37a1.37,1.37,0,0,0,0,2.741h13.567a1.37,1.37,0,0,0,0-2.741Zm5.482,0a1.37,1.37,0,1,0,1.37,1.37A1.37,1.37,0,0,0,160.42,220.945Z" transform="translate(-120.814 -171.728)" fill="#babac0"></path><path id="Path_54560" data-name="Path 54560" d="M312.876,292.438A14.938,14.938,0,1,1,297.938,277.5,14.938,14.938,0,0,1,312.876,292.438Z" transform="translate(-244.216 -234.724)" fill="#f7227f"></path><path id="Path_54561" data-name="Path 54561" d="M309.107,326.087A14.938,14.938,0,1,1,288.019,305a17.086,17.086,0,0,0,21.088,21.088Z" transform="translate(-244.216 -258.454)" fill="#e22175"></path><path id="Path_54562" data-name="Path 54562" d="M361.247,314.869v.729a5.856,5.856,0,0,1-2.613,4.882,2.339,2.339,0,0,0-1.043,1.95,2.056,2.056,0,0,1-4.111,0,6.441,6.441,0,0,1,2.874-5.37,1.752,1.752,0,0,0,.782-1.461v-.729a1.758,1.758,0,0,0-1.756-1.756,1.634,1.634,0,0,0-1.632,1.632,2.056,2.056,0,0,1-4.111,0A5.75,5.75,0,0,1,355.38,309,5.874,5.874,0,0,1,361.247,314.869Zm-5.7,11.263a2.056,2.056,0,1,0,2.056,2.056A2.056,2.056,0,0,0,355.547,326.131Z" transform="translate(-301.72 -261.908)" fill="#e5e5e5"></path><path id="Path_54563" data-name="Path 54563" d="M361.253,314.976v.61a5.75,5.75,0,0,1-2.573,4.869,2.341,2.341,0,0,0-.771.807,2.07,2.07,0,0,1-1.784,1.068h-.071a2.027,2.027,0,0,1-1.771-3.009,6.449,6.449,0,0,1,2.062-2.25,1.768,1.768,0,0,0,.8-1.464v-.737a1.758,1.758,0,0,0-1.851-1.754,1.7,1.7,0,0,0-1.538,1.67,2.056,2.056,0,0,1-2.067,2.015,2.108,2.108,0,0,1-2.043-2.17,5.75,5.75,0,0,1,6.223-5.61A5.94,5.94,0,0,1,361.253,314.976Z" transform="translate(-301.725 -261.908)" fill="#fefefe"></path></g></svg>