<svg xmlns="http://www.w3.org/2000/svg" xmlns:xlink="http://www.w3.org/1999/xlink" width="340.001" height="249.704" viewBox="0 0 340.001 249.704">
  <defs>
    <clipPath id="clip-path">
      <rect id="Rectangle_12577" data-name="Rectangle 12577" width="340.001" height="249.704" fill="none"/>
    </clipPath>
    <clipPath id="clip-path-2">
      <rect id="Rectangle_12525" data-name="Rectangle 12525" width="340" height="249.704" fill="none"/>
    </clipPath>
    <clipPath id="clip-path-3">
      <path id="Path_54859" data-name="Path 54859" d="M316.7,279.062a6.529,6.529,0,0,0-6.744,6.291l4.09,131.932a6.53,6.53,0,0,0,6.744,6.292h198.64a6.53,6.53,0,0,0,6.744-6.292L532.3,285.353a6.53,6.53,0,0,0-6.744-6.291Z" transform="translate(-309.952 -279.062)" fill="none"/>
    </clipPath>
    <linearGradient id="linear-gradient" x1="-0.189" y1="1.197" x2="-0.188" y2="1.197" gradientUnits="objectBoundingBox">
      <stop offset="0" stop-color="#23b0ff"/>
      <stop offset="0.358" stop-color="#02d9ff"/>
      <stop offset="1" stop-color="#23b0ff"/>
    </linearGradient>
    <clipPath id="clip-path-4">
      <path id="Path_54860" data-name="Path 54860" d="M504.148,688.971c-47.266,19.864-69.483,24.913-129.529,15.726-20.171-3.086-35.738,3.476-47.518,13.553l.939,30.278a6.53,6.53,0,0,0,6.744,6.292h198.64a6.53,6.53,0,0,0,6.744-6.292l2.867-61.653a116.257,116.257,0,0,0-18.788-2,49.942,49.942,0,0,0-20.1,4.1" transform="translate(-327.101 -684.87)" fill="none"/>
    </clipPath>
    <linearGradient id="linear-gradient-2" x1="-0.248" y1="1.336" x2="-0.247" y2="1.336" gradientUnits="objectBoundingBox">
      <stop offset="0" stop-color="#d91e6f"/>
      <stop offset="0.169" stop-color="#f7227f"/>
      <stop offset="0.496" stop-color="#f7227f"/>
      <stop offset="0.946" stop-color="#f7227f"/>
      <stop offset="1" stop-color="#d91e6f"/>
    </linearGradient>
    <clipPath id="clip-path-6">
      <path id="Path_54862" data-name="Path 54862" d="M832.723,412.568s.389,45.716-.86,55.729l3.168,58.611h61.922s2.841-64.312,2.841-69.217.2-44.994.2-44.994l-17.244-6.158-24.421-.307Z" transform="translate(-831.863 -406.233)" fill="none"/>
    </clipPath>
    <linearGradient id="linear-gradient-3" x1="-2.244" y1="1.451" x2="-2.241" y2="1.451" gradientUnits="objectBoundingBox">
      <stop offset="0" stop-color="#f3ebff"/>
      <stop offset="1" stop-color="#eadbff"/>
    </linearGradient>
    <clipPath id="clip-path-7">
      <rect id="Rectangle_12531" data-name="Rectangle 12531" width="41.076" height="22.651" fill="none"/>
    </clipPath>
    <clipPath id="clip-path-8">
      <rect id="Rectangle_12532" data-name="Rectangle 12532" width="32.108" height="16.067" fill="none"/>
    </clipPath>
    <clipPath id="clip-path-9">
      <rect id="Rectangle_12538" data-name="Rectangle 12538" width="44.25" height="51.881" fill="none"/>
    </clipPath>
    <clipPath id="clip-path-10">
      <rect id="Rectangle_12570" data-name="Rectangle 12570" width="11.537" height="9.664" fill="none"/>
    </clipPath>
    <clipPath id="clip-path-11">
      <rect id="Rectangle_12571" data-name="Rectangle 12571" width="11.773" height="12.287" fill="none"/>
    </clipPath>
    <clipPath id="clip-path-12">
      <rect id="Rectangle_12572" data-name="Rectangle 12572" width="17.507" height="16.835" fill="none"/>
    </clipPath>
    <clipPath id="clip-path-13">
      <rect id="Rectangle_12573" data-name="Rectangle 12573" width="23.303" height="8.152" fill="none"/>
    </clipPath>
    <clipPath id="clip-path-14">
      <rect id="Rectangle_12574" data-name="Rectangle 12574" width="6.005" height="13.417" fill="none"/>
    </clipPath>
    <clipPath id="clip-path-15">
      <rect id="Rectangle_12575" data-name="Rectangle 12575" width="5.823" height="8.837" fill="none"/>
    </clipPath>
  </defs>
  <g id="Group_119594" data-name="Group 119594" clip-path="url(#clip-path)">
    <g id="Group_119535" data-name="Group 119535" transform="translate(0 0)">
      <g id="Group_119534" data-name="Group 119534" clip-path="url(#clip-path-2)">
        <path id="Path_54855" data-name="Path 54855" d="M421.319,1330.563H106.639a3.152,3.152,0,0,1-3.152-3.152v-.088a3.152,3.152,0,0,1,3.152-3.152h314.68a3.153,3.153,0,0,1,3.153,3.152v.088a3.153,3.153,0,0,1-3.153,3.152" transform="translate(-84.472 -1080.858)" fill="#392054"/>
        <path id="Path_54856" data-name="Path 54856" d="M486.559,397.743H271.571a6.53,6.53,0,0,1-6.744-6.291l-4.09-147.184a6.529,6.529,0,0,1,6.744-6.291H492.694a6.53,6.53,0,0,1,6.744,6.291L493.3,391.451a6.529,6.529,0,0,1-6.744,6.291" transform="translate(-212.828 -194.249)" fill="#392054"/>
        <path id="Path_54857" data-name="Path 54857" d="M520.022,245.125a5.967,5.967,0,0,1,1.133,3.492L515.021,395.8a6.529,6.529,0,0,1-6.744,6.291H293.289a7.028,7.028,0,0,1-4.125-1.313,6.876,6.876,0,0,0,5.611,2.8H509.763a6.529,6.529,0,0,0,6.744-6.292L522.642,250.1a6.144,6.144,0,0,0-2.62-4.978" transform="translate(-236.031 -200.084)" fill="#634f78"/>
        <path id="Path_54858" data-name="Path 54858" d="M315.71,399.675l-4.09-131.932a6.53,6.53,0,0,1,6.744-6.292H527.228a6.53,6.53,0,0,1,6.744,6.292l-6.135,131.932a6.529,6.529,0,0,1-6.744,6.291H322.454a6.529,6.529,0,0,1-6.744-6.291" transform="translate(-254.361 -213.411)" fill="#0199ec"/>
      </g>
    </g>
    <g id="Group_119537" data-name="Group 119537" transform="translate(56.953 51.277)">
      <g id="Group_119536" data-name="Group 119536" clip-path="url(#clip-path-3)">
        <rect id="Rectangle_12526" data-name="Rectangle 12526" width="244.069" height="180.93" transform="matrix(0.985, -0.174, 0.174, 0.985, -24.713, 4.358)" fill="url(#linear-gradient)"/>
      </g>
    </g>
    <g id="Group_119539" data-name="Group 119539" transform="translate(60.104 125.842)">
      <g id="Group_119538" data-name="Group 119538" clip-path="url(#clip-path-4)">
        <rect id="Rectangle_12527" data-name="Rectangle 12527" width="224.799" height="106.383" transform="translate(-11.962 2.109) rotate(-10)" fill="url(#linear-gradient-2)"/>
      </g>
    </g>
    <g id="Group_119541" data-name="Group 119541" transform="translate(0 0)">
      <g id="Group_119540" data-name="Group 119540" clip-path="url(#clip-path-2)">
        <path id="Path_54861" data-name="Path 54861" d="M553.922,451.013h-3.763a.2.2,0,0,1,0-.409h3.373l.053-1.14a.2.2,0,0,1,.214-.194.2.2,0,0,1,.194.214Zm-8.668,0h-4.9a.2.2,0,0,1,0-.409h4.9a.2.2,0,0,1,0,.409m-9.81,0h-4.9a.2.2,0,1,1,0-.409h4.9a.2.2,0,0,1,0,.409m-9.809,0h-4.9a.2.2,0,0,1,0-.409h4.9a.2.2,0,0,1,0,.409m-9.809,0h-4.9a.2.2,0,0,1,0-.409h4.9a.2.2,0,0,1,0,.409m-9.809,0h-4.9a.2.2,0,1,1,0-.409h4.9a.2.2,0,0,1,0,.409m-9.809,0h-4.9a.2.2,0,0,1,0-.409h4.9a.2.2,0,0,1,0,.409m-9.809,0h-4.9a.2.2,0,0,1,0-.409h4.9a.2.2,0,0,1,0,.409m-9.81,0h-4.9a.2.2,0,1,1,0-.409h4.9a.2.2,0,1,1,0,.409m-9.809,0h-4.9a.2.2,0,0,1,0-.409h4.9a.2.2,0,0,1,0,.409m-9.809,0h-4.9a.2.2,0,0,1,0-.409h4.9a.2.2,0,1,1,0,.409m-9.81,0h-4.9a.2.2,0,0,1,0-.409h4.9a.2.2,0,0,1,0,.409m-9.809,0h-4.9a.2.2,0,0,1,0-.409h4.9a.2.2,0,0,1,0,.409m-9.809,0h-4.9a.2.2,0,0,1,0-.409h4.9a.2.2,0,1,1,0,.409m-9.809,0h-4.9a.2.2,0,0,1,0-.409h4.9a.2.2,0,0,1,0,.409m-9.809,0h-4.9a.2.2,0,0,1,0-.409h4.9a.2.2,0,0,1,0,.409m-9.809,0h-4.9a.2.2,0,0,1,0-.409h4.9a.2.2,0,1,1,0,.409m-9.809,0h-4.9a.2.2,0,0,1,0-.409h4.9a.2.2,0,0,1,0,.409m-9.809,0h-4.9a.2.2,0,0,1,0-.409h4.9a.2.2,0,0,1,0,.409m-9.809,0h-4.9a.2.2,0,1,1,0-.409h4.9a.2.2,0,1,1,0,.409m-9.809,0h-1.259l-.158-5.1a.2.2,0,0,1,.2-.211.208.208,0,0,1,.211.2l.146,4.7h.863a.2.2,0,0,1,0,.409m195.141-6.234h-.01a.2.2,0,0,1-.194-.213l.228-4.9a.2.2,0,0,1,.408.019l-.228,4.9a.2.2,0,0,1-.2.195m-196.506-3.57a.2.2,0,0,1-.2-.2l-.152-4.9a.2.2,0,1,1,.408-.013l.152,4.9a.2.2,0,0,1-.2.211Zm196.962-6.228h-.01a.2.2,0,0,1-.194-.214l.228-4.9a.2.2,0,0,1,.214-.195.2.2,0,0,1,.194.214l-.228,4.9a.2.2,0,0,1-.2.195M357.207,431.4a.2.2,0,0,1-.2-.2l-.152-4.9a.2.2,0,0,1,.2-.211.207.207,0,0,1,.211.2l.152,4.9a.2.2,0,0,1-.2.211Zm197.721-6.223h-.009a.2.2,0,0,1-.195-.214l.228-4.9a.2.2,0,0,1,.408.019l-.228,4.9a.2.2,0,0,1-.2.195M356.9,421.6a.2.2,0,0,1-.2-.2l-.152-4.9a.2.2,0,0,1,.2-.211.211.211,0,0,1,.211.2l.152,4.9a.2.2,0,0,1-.2.211Zm198.481-6.216h-.009a.2.2,0,0,1-.195-.213l.228-4.9a.2.2,0,0,1,.213-.194.2.2,0,0,1,.195.214l-.228,4.9a.2.2,0,0,1-.2.195M356.6,411.794a.2.2,0,0,1-.2-.2l-.152-4.9a.2.2,0,0,1,.2-.211.2.2,0,0,1,.211.2l.152,4.9a.2.2,0,0,1-.2.211Zm199.24-6.211h-.01a.2.2,0,0,1-.195-.214l.228-4.9a.2.2,0,0,1,.214-.194.2.2,0,0,1,.194.214l-.228,4.9a.2.2,0,0,1-.2.195m-199.544-3.594a.2.2,0,0,1-.2-.2l-.152-4.9a.2.2,0,0,1,.2-.211.2.2,0,0,1,.21.2l.152,4.9a.2.2,0,0,1-.2.211Zm200-6.2h-.01a.2.2,0,0,1-.194-.214l.228-4.9a.2.2,0,0,1,.408.019l-.228,4.9a.2.2,0,0,1-.2.195m-200.3-3.6a.2.2,0,0,1-.2-.2l-.152-4.9a.2.2,0,0,1,.2-.211.2.2,0,0,1,.211.2l.152,4.9a.2.2,0,0,1-.2.211Zm200.759-6.2h-.009a.2.2,0,0,1-.195-.214l.228-4.9a.2.2,0,0,1,.213-.195.2.2,0,0,1,.194.214l-.228,4.9a.2.2,0,0,1-.2.195M355.687,382.38a.2.2,0,0,1-.2-.2l-.152-4.9a.2.2,0,1,1,.409-.013l.152,4.9a.2.2,0,0,1-.2.211Zm201.519-6.193h-.01a.2.2,0,0,1-.195-.214l.228-4.9a.215.215,0,0,1,.213-.195.2.2,0,0,1,.195.214l-.228,4.9a.2.2,0,0,1-.2.195m-201.823-3.612a.2.2,0,0,1-.2-.2l-.152-4.9a.2.2,0,0,1,.2-.211.2.2,0,0,1,.211.2l.152,4.9a.2.2,0,0,1-.2.211h-.007m202.279-6.187h-.01a.2.2,0,0,1-.195-.214l.228-4.9a.2.2,0,0,1,.214-.195.2.2,0,0,1,.194.214l-.228,4.9a.2.2,0,0,1-.2.195m-202.583-3.618a.2.2,0,0,1-.2-.2l-.152-4.9a.2.2,0,0,1,.2-.211.207.207,0,0,1,.211.2l.152,4.9a.2.2,0,0,1-.2.211Zm203.038-6.181h-.01a.2.2,0,0,1-.194-.214l.228-4.9a.2.2,0,1,1,.408.019l-.228,4.9a.2.2,0,0,1-.2.195m-203.342-3.623a.2.2,0,0,1-.2-.2l-.152-4.9a.2.2,0,0,1,.2-.211.207.207,0,0,1,.211.2l.152,4.9a.2.2,0,0,1-.2.211h-.007m203.8-6.175h-.009a.2.2,0,0,1-.195-.214l.228-4.9a.2.2,0,1,1,.408.019l-.228,4.9a.2.2,0,0,1-.2.195m-204.1-3.629a.2.2,0,0,1-.2-.2l-.152-4.9a.2.2,0,0,1,.2-.211.2.2,0,0,1,.211.2l.152,4.9a.2.2,0,0,1-.2.211Zm204.557-6.169h-.009a.2.2,0,0,1-.195-.214l.228-4.9a.2.2,0,0,1,.214-.194.2.2,0,0,1,.194.214l-.228,4.9a.2.2,0,0,1-.2.195m-204.861-3.635a.2.2,0,0,1-.2-.2l-.152-4.9a.2.2,0,0,1,.2-.211.2.2,0,0,1,.21.2l.152,4.9a.2.2,0,0,1-.2.211h-.007m205.317-6.164h-.01a.2.2,0,0,1-.195-.214l.192-4.133h-.34a.2.2,0,1,1,0-.409h.768l-.212,4.56a.2.2,0,0,1-.2.195m-205.621-3.641a.2.2,0,0,1-.2-.2l-.029-.916h4.41a.2.2,0,0,1,0,.409h-3.988l.015.495a.2.2,0,0,1-.2.211Zm200.364-.705h-4.9a.2.2,0,0,1,0-.409h4.9a.2.2,0,0,1,0,.409m-9.81,0h-4.9a.2.2,0,1,1,0-.409h4.9a.2.2,0,1,1,0,.409m-9.809,0h-4.9a.2.2,0,1,1,0-.409h4.9a.2.2,0,0,1,0,.409m-9.81,0h-4.9a.2.2,0,1,1,0-.409h4.9a.2.2,0,0,1,0,.409m-9.809,0h-4.9a.2.2,0,1,1,0-.409h4.9a.2.2,0,0,1,0,.409m-9.809,0h-4.9a.2.2,0,1,1,0-.409h4.9a.2.2,0,0,1,0,.409m-9.81,0h-4.9a.2.2,0,1,1,0-.409h4.9a.2.2,0,1,1,0,.409m-9.809,0h-4.9a.2.2,0,0,1,0-.409h4.9a.2.2,0,0,1,0,.409m-9.809,0h-4.9a.2.2,0,0,1,0-.409h4.9a.2.2,0,0,1,0,.409m-9.81,0h-4.9a.2.2,0,1,1,0-.409h4.9a.2.2,0,0,1,0,.409m-9.809,0h-4.9a.2.2,0,1,1,0-.409h4.9a.2.2,0,1,1,0,.409m-9.809,0h-4.9a.2.2,0,0,1,0-.409h4.9a.2.2,0,1,1,0,.409m-9.809,0h-4.9a.2.2,0,1,1,0-.409h4.9a.2.2,0,1,1,0,.409m-9.809,0h-4.9a.2.2,0,1,1,0-.409h4.9a.2.2,0,0,1,0,.409m-9.809,0h-4.9a.2.2,0,1,1,0-.409h4.9a.2.2,0,1,1,0,.409m-9.809,0h-4.9a.2.2,0,1,1,0-.409h4.9a.2.2,0,1,1,0,.409m-9.809,0h-4.9a.2.2,0,1,1,0-.409h4.9a.2.2,0,1,1,0,.409m-9.809,0h-4.9a.2.2,0,1,1,0-.409h4.9a.2.2,0,1,1,0,.409m-9.809,0h-4.9a.2.2,0,1,1,0-.409h4.9a.2.2,0,0,1,0,.409m-9.809,0h-4.9a.2.2,0,1,1,0-.409h4.9a.2.2,0,1,1,0,.409" transform="translate(-288.653 -263.191)" fill="#ee7980"/>
      </g>
    </g>
    <g id="Group_119543" data-name="Group 119543" transform="translate(152.852 74.644)">
      <g id="Group_119542" data-name="Group 119542" clip-path="url(#clip-path-6)">
        <rect id="Rectangle_12529" data-name="Rectangle 12529" width="68.13" height="120.676" transform="translate(0 0)" fill="url(#linear-gradient-3)"/>
      </g>
    </g>
    <g id="Group_119593" data-name="Group 119593">
      <g id="Group_119596" data-name="Group 119596">
        <path id="Path_54863" data-name="Path 54863" d="M916.039,408.736l-12.222,3.422s4.893,24.432,7.813,27.352-.5,5.109,1.957,7.561,16.042,20.879,16.042,20.879Z" transform="translate(-737.744 -333.632)" fill="#e5d4ff"/>
        <path id="Path_54864" data-name="Path 54864" d="M1056.758,413.093l-12.466,58.413s13.255-23.424,14.388-24.558,0-5.927,0-8.174,7.05-21.792,7.05-21.792-6.437-3.889-8.972-3.889" transform="translate(-852.407 -337.189)" fill="#e5d4ff"/>
        <path id="Path_54865" data-name="Path 54865" d="M917.79,406.234l-13.079,1.328s4.729,24.056,7.648,26.976-.5,5.109,1.957,7.561,16.042,23.808,16.042,23.808Z" transform="translate(-738.474 -331.59)" fill="#f5eeff"/>
        <path id="Path_54866" data-name="Path 54866" d="M1056.145,407.9l-11.853,59.367s13.255-26.353,14.388-27.487,0-5.926,0-8.174,7.172-20.845,7.172-20.845-7.172-2.861-9.707-2.861" transform="translate(-852.407 -332.952)" fill="#f5eeff"/>
        <path id="Path_54867" data-name="Path 54867" d="M1034.839,792l1.737-61-.358,61Z" transform="translate(-844.691 -596.677)" fill="#e5d4ff"/>
        <rect id="Rectangle_12530" data-name="Rectangle 12530" width="46.595" height="4.905" transform="translate(150.093 203.494)" fill="#776092"/>
        <path id="Path_54868" data-name="Path 54868" d="M871.712,1156.816H833.089l-1.227-22.651h41.077Z" transform="translate(-679.011 -925.767)" fill="#826c9a"/>
        <g id="Group_119546" data-name="Group 119546" transform="translate(152.852 208.399)" opacity="0.28">
          <g id="Group_119545" data-name="Group 119545">
            <g id="Group_119544" data-name="Group 119544" clip-path="url(#clip-path-7)">
              <path id="Path_54869" data-name="Path 54869" d="M872.94,1134.165H831.863l1.227,22.651h5.079a26.465,26.465,0,0,1,3.4-10.293c3.444-5.446,20.442-7.586,31.155-8.4Z" transform="translate(-831.863 -1134.165)" fill="#2c0754"/>
            </g>
          </g>
        </g>
        <path id="Path_54870" data-name="Path 54870" d="M771.744,1269.7H666.7a12.262,12.262,0,0,1,12.262-12.262h80.519a12.262,12.262,0,0,1,12.262,12.262" transform="translate(-544.198 -1026.388)" fill="#593b78"/>
        <path id="Path_54871" data-name="Path 54871" d="M536.323,394.481,532.754,381.7l-15.684,4.022s2.236,6.959,3.8,7.914l6.358,3.89,14.021,27.814,8.569-10.586Z" transform="translate(-422.06 -311.568)" fill="#ed9cad"/>
        <path id="Path_54872" data-name="Path 54872" d="M978.855,276.325s.613,8.277,0,12.057a15.607,15.607,0,0,1-2.963,6.642L988.46,354.7l11.853-59.367s-2.943-1.8-3.781-6.948-.818-18.392-.818-18.392Z" transform="translate(-796.575 -220.38)" fill="#f4abba"/>
        <path id="Path_54873" data-name="Path 54873" d="M990.9,260.173s-.068,28.883-.068,35.657,8.348,14.948,12.69,13.313,8.987-21.825,8.987-21.825l-.086-11.341Z" transform="translate(-808.768 -212.367)" fill="#f4abba"/>
        <path id="Path_54874" data-name="Path 54874" d="M1014.009,294.595V283.931l-10.362-6.842a6.38,6.38,0,0,1-.593-.311,7.948,7.948,0,0,1-1.153-.843l-9.114-6.018s0,.283-.011.79l.011.083s.761,10.01,4.831,16.242c3.275,5.015,10.66,8.681,16.39,7.562" transform="translate(-810.357 -220.322)" fill="#e08699"/>
        <path id="Path_54875" data-name="Path 54875" d="M997.829,84.658s-5.862,14.714-4.885,26.1,16.77,26.275,23.771,21.721,4.722-17.517,4.722-20.495,2.663-16.641.355-21.546-19.567-10.51-23.963-5.781" transform="translate(-810.405 -67.642)" fill="#f4abba"/>
        <path id="Path_54876" data-name="Path 54876" d="M1006.541,40.719c-9.606-4.2-21.492-2.978-24.422,3.5s.661,34.333.661,34.333,1.13,9.284,5.2,15.064,14.491,9.634,20.189,5.43,3.914-17.7,3.914-17.7-.82,3.163-3.1,3.163-2.713-1.716-3.745-1.927c-3.754-.767-5.373.35-8.63,1.927a3.457,3.457,0,0,1-3.194-.4,9.626,9.626,0,0,1-4.518-9.348l.874-9.519a25.918,25.918,0,0,0,7.652-7.357c1.791,7.007,15.529,5.413,17.584,2.1s1.14-15.064-8.467-19.269" transform="translate(-800.718 -31.236)" fill="#3b2256"/>
        <g id="Group_119549" data-name="Group 119549" transform="translate(180.22 16.1)" opacity="0.53" style="mix-blend-mode: multiply;isolation: isolate">
          <g id="Group_119548" data-name="Group 119548">
            <g id="Group_119547" data-name="Group 119547" clip-path="url(#clip-path-8)">
              <path id="Path_54877" data-name="Path 54877" d="M1011.974,94.313c-1.209-2.569-6.519-5.329-11.934-6.7a12.787,12.787,0,0,0-.476,2.819l-7.535,1.124-11.222,7.778a170.424,170.424,0,0,1,18.826-6.673,3.291,3.291,0,0,0,.1.708c1.128,6.575,6.951,11.079,13.09,10.2.21-3.669.11-7.223-.849-9.262" transform="translate(-980.807 -87.617)" fill="#f7bfcb"/>
            </g>
          </g>
        </g>
        <path id="Path_54878" data-name="Path 54878" d="M1003.451,72.715c-14.3,1.465-23.51,6.043-23.51,6.043a53.794,53.794,0,0,0,.078,8.417c9.728-5.469,21.2-9.364,23.432-9.086a7.357,7.357,0,0,0,0-5.373" transform="translate(-799.8 -59.354)" fill="#4cdfea"/>
        <path id="Path_54879" data-name="Path 54879" d="M976.822,157.216s-1.954-5.722-6.078-4.437.108,14.481,3.039,13.429,3.691-6.306,3.039-8.992" transform="translate(-790.972 -124.553)" fill="#f4abba"/>
        <path id="Path_54880" data-name="Path 54880" d="M1108.729,48.854c1.147,6.683-2.99,12.97-9.24,14.042s-12.246-3.475-13.393-10.158,2.99-12.97,9.239-14.042,12.246,3.475,13.393,10.158" transform="translate(-886.374 -31.458)" fill="#31dae7"/>
        <path id="Path_54881" data-name="Path 54881" d="M1111.766,48.633c1.147,6.683-2.835,12.943-8.895,13.983s-11.9-3.534-13.048-10.217,2.835-12.943,8.895-13.983,11.9,3.535,13.048,10.217" transform="translate(-889.412 -31.236)" fill="#85e9f1"/>
        <path id="Path_54882" data-name="Path 54882" d="M1096.211,49.354a12.7,12.7,0,0,1,2.837-10.56c-.11.016-.22.032-.33.051-6.059,1.04-10.042,7.3-8.895,13.983s6.989,11.257,13.048,10.217a10.4,10.4,0,0,0,6.057-3.423c-5.94.822-11.592-3.706-12.718-10.268" transform="translate(-889.412 -31.666)" fill="#31dae7"/>
        <path id="Path_54883" data-name="Path 54883" d="M1145.2,93.6a1.661,1.661,0,1,1-1.937-1.517A1.744,1.744,0,0,1,1145.2,93.6" transform="translate(-932.092 -75.143)" fill="#31dae7"/>
        <path id="Path_54884" data-name="Path 54884" d="M999.943,520.429l9.226-46.213a63.612,63.612,0,0,1-19.21-1.187Z" transform="translate(-808.058 -386.111)" fill="#726186"/>
        <path id="Path_54885" data-name="Path 54885" d="M1009.169,474.215l-.2.021c-2.31,9.441-7.587,30.373-9.388,32.173-1.729,1.729-7-21.333-9.614-33.379l-.012,0,9.984,47.4Z" transform="translate(-808.058 -386.111)" fill="#553f6c"/>
        <path id="Path_54886" data-name="Path 54886" d="M533.971,339.094c-.139-.172-11.747-11.22-14.042-10.528-3.819,1,4.669,7.33,5.588,8.518a12.823,12.823,0,0,1,1.224,2.046c-.3.086-.582.164-.835.225-2.185.526-8.019,1.616-8.849,2.972,0,0-.157,7.64,1.85,7.682s4.037-.692,6.192-.475a4.894,4.894,0,0,0,3.023-.977c.135-.089.261-.179.381-.268a1.562,1.562,0,0,0-.067,1.571c1.029,2.091,8.148-1.515,8.457-2.851s-1.279-5.893-2.922-7.915M532.342,346a9.2,9.2,0,0,0-2.861,1.289c-.275-.721-1.636-4.4-1.412-5.861h0c.991-1.048,3.156-1.079,4.215-.625a1,1,0,0,1,.3.517c.335,1.391,1.053,4.371-.239,4.682" transform="translate(-422.048 -268.167)" fill="#f4abba"/>
        <path id="Path_54887" data-name="Path 54887" d="M604.419,459.41s16.553,42.507,22.889,45.777,18.9-8.747,18.9-8.747,3.721-55.73.86-55.73-6.8,12.867-10.182,21.283c-3.443,8.561-3.507,18.1-8.132,9.784-4.725-8.5-11.044-21.473-11.044-21.473-4.768,4.768-13.294,9.106-13.294,9.106" transform="translate(-493.359 -359.732)" fill="#f5eeff"/>
        <path id="Path_54888" data-name="Path 54888" d="M448.455,214.753a.767.767,0,0,1-.631-1.2l29.119-42.2a.767.767,0,1,1,1.263.872l-29.119,42.2a.767.767,0,0,1-.632.331" transform="translate(-365.427 -139.598)" fill="#5b4671"/>
        <path id="Path_54889" data-name="Path 54889" d="M176.554,462.121a.767.767,0,0,1-.56-1.292l48.331-51.669a.767.767,0,0,1,1.121,1.048l-48.331,51.669a.766.766,0,0,1-.561.243" transform="translate(-143.486 -333.78)" fill="#5b4671"/>
        <path id="Path_54890" data-name="Path 54890" d="M266.894,286.674a.764.764,0,0,1-.446-.144l-38.874-27.863a.767.767,0,1,1,.894-1.247l38.874,27.863a.767.767,0,0,1-.448,1.391" transform="translate(-185.496 -210.003)" fill="#5b4671"/>
        <path id="Path_54891" data-name="Path 54891" d="M460.315,499.365a.767.767,0,0,1-.747-.593l-20.734-88.914a.767.767,0,1,1,1.495-.349l20.734,88.914a.767.767,0,0,1-.748.942" transform="translate(-358.184 -333.779)" fill="#5b4671"/>
        <path id="Path_54892" data-name="Path 54892" d="M413.278,374.747a8.632,8.632,0,1,1-8.632-8.632,8.632,8.632,0,0,1,8.632,8.632" transform="translate(-323.248 -298.843)" fill="#5b4671"/>
        <path id="Path_54893" data-name="Path 54893" d="M424.055,386.337a5.5,5.5,0,1,1-5.5-5.5,5.5,5.5,0,0,1,5.5,5.5" transform="translate(-337.156 -310.859)" fill="#f19197"/>
        <path id="Path_54894" data-name="Path 54894" d="M40.8,194.439H4a4,4,0,0,1-4-3.995V159.5a4,4,0,0,1,4-4H40.8a4,4,0,0,1,4,4v30.945a4,4,0,0,1-4,3.995" transform="translate(0 -126.931)" fill="#23b0ff"/>
        <path id="Path_54895" data-name="Path 54895" d="M44.406,157.755a3.976,3.976,0,0,1,.414,1.77V190.47a4,4,0,0,1-4,4H4.02a3.979,3.979,0,0,1-1.77-.413,4,4,0,0,0,3.582,2.225h36.8a4,4,0,0,0,4-4V161.337a3.994,3.994,0,0,0-2.225-3.582" transform="translate(-1.837 -128.768)" fill="#5b4671"/>
        <path id="Path_54896" data-name="Path 54896" d="M40.8,611.651H4a4,4,0,0,1-4-3.995V576.711a4,4,0,0,1,4-4H40.8a4,4,0,0,1,4,4v30.945a4,4,0,0,1-4,3.995" transform="translate(0 -467.482)" fill="#23b0ff"/>
        <path id="Path_54897" data-name="Path 54897" d="M44.406,574.967a3.976,3.976,0,0,1,.414,1.77v30.945a4,4,0,0,1-4,3.995H4.02a3.977,3.977,0,0,1-1.77-.414,4,4,0,0,0,3.582,2.225h36.8a4,4,0,0,0,4-3.995V578.548a3.994,3.994,0,0,0-2.225-3.581" transform="translate(-1.837 -469.319)" fill="#5b4671"/>
        <path id="Path_54898" data-name="Path 54898" d="M465.561,38.935h42.574a4.267,4.267,0,0,0,4.267-4.267V4.267A4.267,4.267,0,0,0,508.136,0H465.561a4.267,4.267,0,0,0-4.267,4.267v30.4a4.267,4.267,0,0,0,4.267,4.267" transform="translate(-376.533)" fill="#0199ec"/>
        <path id="Path_54899" data-name="Path 54899" d="M463.831,2.25a3.58,3.58,0,0,0-.472,1.77V34.965a4.3,4.3,0,0,0,4.558,4H509.91a5.07,5.07,0,0,0,2.02-.414,4.654,4.654,0,0,1-4.086,2.225H465.851a4.3,4.3,0,0,1-4.558-4V5.831a3.983,3.983,0,0,1,2.538-3.581" transform="translate(-376.532 -1.837)" fill="#5b4671"/>
        <path id="Path_54900" data-name="Path 54900" d="M436.336,824.013h42.574a4.267,4.267,0,0,1,4.267,4.267v30.4a4.267,4.267,0,0,1-4.267,4.267H436.336a4.267,4.267,0,0,1-4.267-4.267v-30.4a4.267,4.267,0,0,1,4.267-4.267" transform="translate(-352.678 -672.604)" fill="#23b0ff"/>
        <path id="Path_54901" data-name="Path 54901" d="M434.607,862.535a3.579,3.579,0,0,1-.472-1.77V829.82a4.3,4.3,0,0,1,4.558-3.995h41.992a5.067,5.067,0,0,1,2.02.414,4.654,4.654,0,0,0-4.086-2.225H436.627a4.3,4.3,0,0,0-4.558,3.995v30.945a3.983,3.983,0,0,0,2.538,3.581" transform="translate(-352.678 -672.604)" fill="#5b4671"/>
        <path id="Path_54902" data-name="Path 54902" d="M76.5,213.159a1.321,1.321,0,1,1-1.321-1.321,1.321,1.321,0,0,1,1.321,1.321" transform="translate(-60.289 -172.914)" fill="#f8f8f8"/>
        <path id="Path_54903" data-name="Path 54903" d="M161.534,195.127a.83.83,0,1,1-.83-.83.83.83,0,0,1,.83.83" transform="translate(-130.497 -158.596)" fill="#f8f8f8"/>
        <path id="Path_54904" data-name="Path 54904" d="M66,224.018a11.523,11.523,0,0,1-8.564-19.23l.29-.321.214.376a1.65,1.65,0,0,0,.527.562l.3.2-.241.27a9.983,9.983,0,1,0,17.422,7.413,4.137,4.137,0,0,1-3.331-4.054V201.9l.892-1.36.269.338a1.153,1.153,0,0,0,.6.394l.417.112-.64.975v6.873a2.593,2.593,0,0,0,5.186,0v-6.849l-.736-.994.41-.136a1.155,1.155,0,0,0,.576-.428l.249-.353,1.039,1.4v7.357a4.13,4.13,0,0,1-3.39,4.065A11.5,11.5,0,0,1,66,224.018" transform="translate(-44.469 -163.638)" fill="#f8f8f8"/>
        <path id="Path_54905" data-name="Path 54905" d="M183.221,195.127a.83.83,0,1,1-.83-.83.83.83,0,0,1,.83.83" transform="translate(-148.2 -158.596)" fill="#f8f8f8"/>
        <path id="Path_54906" data-name="Path 54906" d="M100,239.312H96.871v-3.125H93.422v3.125H90.3v3.449h3.125v3.125h3.449v-3.125H100Z" transform="translate(-73.706 -192.789)" fill="#f8f8f8"/>
        <path id="Path_54907" data-name="Path 54907" d="M511.882,75.437h-1l-2.067-2.85-1.562,6.432-1.2-11.16-3.232,7.271L501.4,72.552l-1.81,3.248-2.465-3.014-1.111,5.488-1.042-9.435-3.547,6.4H482.9a.388.388,0,1,0,0,.777h9.36l1.935-3.494,1.477,13.37,2.148-10.62,1.979,2.42,1.6-2.866,1.545,2.808,2.4-5.393L506.8,85.829l2.586-10.647.748,1.031H512.4a8.333,8.333,0,0,1-.52-.776" transform="translate(-393.852 -55.389)" fill="#f8f8f8"/>
        <path id="Path_54908" data-name="Path 54908" d="M648.4,72.55a5.035,5.035,0,0,1,3.942-1.836,3.95,3.95,0,0,1,3.942,4.08c0,2.541-2.192,5.547-7.884,8.16-5.691-2.613-7.883-5.619-7.883-8.16a3.95,3.95,0,0,1,3.942-4.08A5.034,5.034,0,0,1,648.4,72.55" transform="translate(-522.824 -57.721)" fill="#f8f8f8"/>
        <path id="Path_54909" data-name="Path 54909" d="M523.015,884.605l-20.283-2.6a2.353,2.353,0,0,1-2.035-2.633l1.373-10.724a2.353,2.353,0,0,1,2.633-2.035l20.284,2.6a2.353,2.353,0,0,1,2.035,2.633l-1.373,10.724a2.353,2.353,0,0,1-2.633,2.035" transform="translate(-408.679 -707.364)" fill="#d2d2d2"/>
        <path id="Path_54910" data-name="Path 54910" d="M502.35,880.947,501.8,879.7a1,1,0,0,0-.913-.594h-9.361a1,1,0,0,0-1,1v6.356h.017v11.98a1,1,0,0,0,1,1h27.613a1,1,0,0,0,1-1v-15.9a1,1,0,0,0-1-1H503.263a1,1,0,0,1-.913-.594" transform="translate(-400.391 -717.573)" fill="#f8f8f8"/>
        <path id="Path_54911" data-name="Path 54911" d="M554.97,917.644a5.516,5.516,0,1,1-5.516-5.517,5.516,5.516,0,0,1,5.516,5.517" transform="translate(-443.991 -744.527)" fill="#23b0ff"/>
        <path id="Path_54912" data-name="Path 54912" d="M559.163,921.653h-2.77v-2.77h-3.057v2.77h-2.77v3.057h2.77v2.77h3.057v-2.77h2.77Z" transform="translate(-449.402 -750.042)" fill="#fff"/>
        <path id="Path_54913" data-name="Path 54913" d="M95.1,633.595a2.742,2.742,0,1,0,2.742-2.742,2.742,2.742,0,0,0-2.742,2.742" transform="translate(-77.628 -514.936)" fill="#f8f8f8"/>
        <rect id="Rectangle_12533" data-name="Rectangle 12533" width="3.972" height="3.823" transform="translate(24.393 122.28)" fill="#f8f8f8"/>
        <rect id="Rectangle_12534" data-name="Rectangle 12534" width="2.798" height="1.075" transform="translate(24.98 126.325)" fill="#f8f8f8"/>
        <path id="Path_54914" data-name="Path 54914" d="M127.185,611.72a4.159,4.159,0,0,0-.714-2.335v-2.638a1.148,1.148,0,0,0,1.149-1.148v-2.094H131.6V605.6a1.148,1.148,0,0,0,1.149,1.148v6.786a1.072,1.072,0,0,1-1.071,1.072h-4.137a1.072,1.072,0,0,1-.994-.67,4.158,4.158,0,0,0,.636-2.215" transform="translate(-103.232 -492.614)" fill="#f8f8f8"/>
        <rect id="Rectangle_12535" data-name="Rectangle 12535" width="5.891" height="1.408" transform="translate(23.433 109.484)" fill="#f8f8f8"/>
        <path id="Path_54915" data-name="Path 54915" d="M74.261,646.041q-.019.2-.019.4a4.19,4.19,0,0,0,3.305,4.09,3.617,3.617,0,0,0-1.306,1.689,4.824,4.824,0,0,0,.317,3.755,7.776,7.776,0,0,0,3.129,3.243l-.5,1.747c-6.862-1.949-9.778-9.561-4.931-14.923" transform="translate(-58.655 -527.333)" fill="#f8f8f8"/>
        <rect id="Rectangle_12536" data-name="Rectangle 12536" width="5.743" height="3.854" transform="translate(17.345 131.827)" fill="#f8f8f8"/>
        <path id="Path_54916" data-name="Path 54916" d="M68.317,740.469H89.635v-.636a1.42,1.42,0,0,0-1.42-1.42H69.737a1.42,1.42,0,0,0-1.42,1.42Z" transform="translate(-55.764 -602.731)" fill="#f8f8f8"/>
        <rect id="Rectangle_12537" data-name="Rectangle 12537" width="10.968" height="1.927" transform="translate(20.927 128.727)" fill="#f8f8f8"/>
        <path id="Path_54917" data-name="Path 54917" d="M1197.637,441.415s-2.4,17.383-.2,44.994c.36,4.526,6.756,1.292,13.5,6.369,11.238,8.461,19.072,19.88,21.069,24.418,4.556-2.055,4.528-22.571,2.034-30.72-2.712-5.416-36.4-45.061-36.4-45.061" transform="translate(-976.656 -360.307)" fill="#f5eeff"/>
        <path id="Path_54918" data-name="Path 54918" d="M1204.068,571.086,1160.6,565.83l-27.23,51.881h35.256Z" transform="translate(-925.114 -461.861)" fill="#ef8289"/>
        <g id="Group_119552" data-name="Group 119552" transform="translate(234.705 103.969)" opacity="0.44">
          <g id="Group_119551" data-name="Group 119551">
            <g id="Group_119550" data-name="Group 119550" clip-path="url(#clip-path-9)">
              <path id="Path_54919" data-name="Path 54919" d="M1286.137,617.71l35.446-46.625-43.472-5.256-.776,1.479c6.8,1.779,19.945,5.95,21.9,11.988,2.085,6.449-13.091,29.055-19.665,38.414Z" transform="translate(-1277.334 -565.829)" fill="#ef7e85"/>
            </g>
          </g>
        </g>
        <path id="Path_54920" data-name="Path 54920" d="M1149.771,552.983,1122.063,606.3l2.077.927,27.23-51.881,43.471,5.256-2.648-2.075Z" transform="translate(-915.888 -451.375)" fill="#f08a91"/>
        <path id="Path_54921" data-name="Path 54921" d="M1223.642,746.391c.791-.631,7.41,3.481,11.212,5.94.008-.052.015-.1.023-.153-3.578-2.654-9.842-5.822-8.409-6.733.734-.467,16.457,5.868,16.459,5.869,1.655.75,1.731.821,3.439,1.576-.406-.986-4.519-7.683-1.743-7.355l9.183,12.008c1.558,2.554,1.5,4.1,1.117,5.434-.476,1.639-2.779,6.036-6.532,6.919-3.614.851-13.412-4.683-14.946-6.116-1.648-1.418-12.881-11.237-11.087-13.973,0,0,9.365,9.143,10.36,8.009.058-.262-9.26-6.449-9.99-8.867-.522-1.731,7.626,3.545,11.2,6.189-3.2-2.627-10.828-8.312-10.282-8.747" transform="translate(-997.597 -608.451)" fill="#f4abba"/>
        <path id="Path_54937" data-name="Path 54937" d="M1623.305,362.665c-.873.183-8.751.271-8.751,6s.114,8.008-1.367,10.514-1.893,13.1,4.318,10.092c1.662-.806.515,5.171.515,5.171s10.659,4.784,13.62,3.531,7.517,1.595,7.517,1.595,4.531-7.251,0-11.782-3.987-4.164-3.987-9.29-.911-3.645-3.075-6.72-3.438-10.235-8.79-9.112" transform="translate(-1316.015 -295.93)" fill="#392054"/>
        <path id="Path_54938" data-name="Path 54938" d="M1599.941,949.715s4.046,42.088,2.009,47.308-5.363,14.193-5.363,14.193h3.742l7.647-10.16s-.184-.468.453-2.505,5.22-23.936,3.565-34.249c-.47-2.926-1.052-17.021-2.492-19.408-3.635-6.027-9.561,1.777-9.561,4.821" transform="translate(-1303.22 -769.459)" fill="#f4abba"/>
        <path id="Path_54939" data-name="Path 54939" d="M1597.911,1249.645s.944-.387,1.783,1.587-1.531,11.756-1.531,11.756l-1.928.061s1.311-7.255.867-7.255-2.591,7.384-3.677,7.68-8.219.765-9.33-.345,2.886-3.387,2.886-3.387,3.584.478,4.053.01,6.876-10.107,6.876-10.107" transform="translate(-1292.865 -1020.002)" fill="#392054"/>
        <path id="Path_54940" data-name="Path 54940" d="M1679.3,949.715s4.046,42.088,2.009,47.308-5.363,14.193-5.363,14.193h3.742l7.647-10.16s-.183-.468.453-2.505,5.22-23.936,3.565-34.249c-.469-2.926-1.052-17.021-2.491-19.408-3.635-6.027-9.561,1.777-9.561,4.821" transform="translate(-1368 -769.459)" fill="#f4abba"/>
        <g id="Group_119576" data-name="Group 119576" transform="translate(311.538 182.783)" opacity="0.68" style="mix-blend-mode: multiply;isolation: isolate">
          <g id="Group_119575" data-name="Group 119575">
            <g id="Group_119574" data-name="Group 119574" clip-path="url(#clip-path-10)">
              <path id="Path_54941" data-name="Path 54941" d="M1706.392,996.641c-2.013-.355-6.2-1.088-10.911-1.883.189,2.081.474,5.3.78,9.08,2.226.332,7.206.935,10.758.314-.174-2.041-.375-4.8-.627-7.512" transform="translate(-1695.481 -994.758)" fill="#f5b3c0"/>
            </g>
          </g>
        </g>
        <g id="Group_119579" data-name="Group 119579" transform="translate(296.738 180.421)" opacity="0.68" style="mix-blend-mode: multiply;isolation: isolate">
          <g id="Group_119578" data-name="Group 119578">
            <g id="Group_119577" data-name="Group 119577" clip-path="url(#clip-path-11)">
              <path id="Path_54942" data-name="Path 54942" d="M1625.8,983.606c-3.861-.638-7.762-1.26-10.873-1.706.085.894.5,5.357.981,11.222a31.688,31.688,0,0,0,4.088.85,20.919,20.919,0,0,0,6.7-.119c-.233-2.691-.512-6.743-.9-10.247" transform="translate(-1614.928 -981.9)" fill="#f5b3c0"/>
            </g>
          </g>
        </g>
        <path id="Path_54943" data-name="Path 54943" d="M1626.967,754.677V729.529c0-6.621-2.547-24.024-6.621-32.682s-20.88,0-20.88,0a68.174,68.174,0,0,0-4.855,20.643l-.977,37.887c12.109,1.881,21.583,2.029,33.333-.7" transform="translate(-1300.81 -565.663)" fill="#ee7980"/>
        <path id="Path_54944" data-name="Path 54944" d="M1598.647,502.838a27.744,27.744,0,0,0-2.2,13.114c.945,9.544,5.1,21.664,4.186,25.478-1.528,6.366,21.4,7.322,22.475-.724.381-2.862-.363-10.022.311-16.5,1.07-10.287,3.516-20.414,3.063-20.692-10.039-6.157-26.895-2.352-27.838-.676" transform="translate(-1303.023 -408.234)" fill="#41dde9"/>
        <g id="Group_119582" data-name="Group 119582" transform="translate(306.009 92.17)" style="mix-blend-mode: multiply;isolation: isolate">
          <g id="Group_119581" data-name="Group 119581">
            <g id="Group_119580" data-name="Group 119580" clip-path="url(#clip-path-12)">
              <path id="Path_54945" data-name="Path 54945" d="M1665.953,506.275a10.465,10.465,0,0,0,2.918,8.031c3.065,3.065,7.71,5.113,11.886,3.677,1.122-7.247,2.426-13.047,2.084-13.257a24.136,24.136,0,0,0-9.663-3.11l-7.789.5Z" transform="translate(-1665.389 -501.616)" fill="#f6b7ba"/>
            </g>
          </g>
        </g>
        <g id="Group_119585" data-name="Group 119585" transform="translate(296.901 123.77)" opacity="0.57" style="mix-blend-mode: multiply;isolation: isolate">
          <g id="Group_119584" data-name="Group 119584">
            <g id="Group_119583" data-name="Group 119583" clip-path="url(#clip-path-13)">
              <path id="Path_54946" data-name="Path 54946" d="M1615.82,675.609a38.378,38.378,0,0,1,.831,5.546,16.577,16.577,0,0,1,4.294-.25c2.615.31,12.866.892,18.119.838.1-1.248.056-3.05.013-5.15l-20.223-3Z" transform="translate(-1615.82 -673.594)" fill="#f18d93"/>
            </g>
          </g>
        </g>
        <path id="Path_54947" data-name="Path 54947" d="M1662.764,518.542s2.187-.127,4.192,10.377-1.349,23.395-3.587,24.541-22.577-1.432-22.577-1.432l.668-7.353s15.682-.841,17.4-2.56c.422-.422-.021-2.461.341-4.691,1.113-6.848,3.561-18.881,3.561-18.881" transform="translate(-1339.302 -423.262)" fill="#2dc6d2"/>
        <g id="Group_119588" data-name="Group 119588" transform="translate(320.858 95.28)" style="mix-blend-mode: multiply;isolation: isolate">
          <g id="Group_119587" data-name="Group 119587">
            <g id="Group_119586" data-name="Group 119586" clip-path="url(#clip-path-14)">
              <path id="Path_54948" data-name="Path 54948" d="M1752.2,525.317c-1.749-6.871-3.4-6.776-3.4-6.776s-1.433,7.042-2.6,13.417a8.6,8.6,0,0,0,2.138-.913,9.449,9.449,0,0,0,3.867-5.728" transform="translate(-1746.197 -518.542)" fill="#f6b7ba"/>
            </g>
          </g>
        </g>
        <path id="Path_54949" data-name="Path 54949" d="M1743.7,624.982a19.006,19.006,0,0,0,3.149-2.129c.891-.891,2.61-2.037,2.61-1.337a3.325,3.325,0,0,1-.828,1.625s3.088-1.72,3.438-1.37.509,2.546,0,4.9-7.443,3.4-7.443,3.4Z" transform="translate(-1423.301 -507.138)" fill="#f4abba"/>
        <path id="Path_54950" data-name="Path 54950" d="M1677.275,1249.645s.944-.387,1.783,1.587-1.531,11.756-1.531,11.756l-1.928.061s1.312-7.255.867-7.255-2.591,7.384-3.677,7.68-8.219.765-9.33-.345,2.886-3.387,2.886-3.387,3.585.478,4.053.01,6.876-10.107,6.876-10.107" transform="translate(-1357.646 -1020.002)" fill="#392054"/>
        <path id="Path_54951" data-name="Path 54951" d="M1576.382,549.215c7.227,1.975,23.3-1.91,29.793-3.247l-1.528-8.4s-19.053,3.241-21.37,1.9c-1.145-.661-3.64-6.681-4.178-12.6a42.36,42.36,0,0,1,.871-12.006s-6.5,5.848-6.5,20.745c0,11.367-.268,12.738,2.912,13.607" transform="translate(-1284.345 -420.259)" fill="#2fd1de"/>
        <path id="Path_54952" data-name="Path 54952" d="M1592.519,603.331s1.586,1.645,2.828,2.886a28.973,28.973,0,0,1,3.061,4.423s-2.578.342-3.47.342-3.629-1.91-4.647-1.91-.573-1.464.636-1.082,2.419.637,2.419.637-2.705-2.2-3.947-3.437-.061-1.965.955-.949a10.911,10.911,0,0,0,2.164,1.649s-3.565-3.692-2.928-4.329,2.928,1.771,2.928,1.771" transform="translate(-1296.918 -490.938)" fill="#f4abba"/>
        <path id="Path_54953" data-name="Path 54953" d="M1645.192,433.188l-.873,10.37s-3.492,12.309-.688,13.334,6.844-12.86,6.844-12.86V430.759Z" transform="translate(-1340.73 -351.609)" fill="#f4abba"/>
        <g id="Group_119591" data-name="Group 119591" transform="translate(303.922 79.15)" opacity="0.68" style="mix-blend-mode: multiply;isolation: isolate">
          <g id="Group_119590" data-name="Group 119590">
            <g id="Group_119589" data-name="Group 119589" clip-path="url(#clip-path-15)">
              <path id="Path_54954" data-name="Path 54954" d="M1654.033,439.6c1.917-.137,4.135-1.871,5.822-4.279v-4.557l-5.283,2.429Z" transform="translate(-1654.032 -430.759)" fill="#f5b3c0"/>
            </g>
          </g>
        </g>
        <path id="Path_54955" data-name="Path 54955" d="M1636.619,376.947s-2.886-1.731-4.652,4.25-1.52,10.4,1.439,11.218,7.568-2.312,9.537-6.2-3.832-9.615-6.324-9.266" transform="translate(-1331.194 -307.495)" fill="#f4abba"/>
        <path id="Path_54956" data-name="Path 54956" d="M1668.476,390.443a10.584,10.584,0,0,0-1.96-2.779c-4.531-4.531-3.986-4.164-3.986-9.29s-.911-3.645-3.075-6.72-3.438-10.262-8.79-9.141c-.069.014-5.868,1.217-4.738,3.427,0,0,.994-.654,2.887,1.679,2.1,2.583.9,2.782,2.953,3.693s1.258,4.442,1.258,6.777-.688,9.369-2.567,12.415,1.686,8.9,5.909,10.664c12.356,5.153,14.4-6.149,12.111-10.725" transform="translate(-1343.374 -295.806)" fill="#553f6c"/>
      </g>
    </g>
  </g>
</svg>
