<svg xmlns="http://www.w3.org/2000/svg" width="142" height="142" viewBox="0 0 42 42">
    <g id="Group_119204" data-name="Group 119204" transform="translate(-3119.247 16367.782)">
      <g id="x-ray_2_" data-name="x-ray (2)" transform="translate(3119.247 -16367.782)">
        <circle id="Ellipse_441" data-name="Ellipse 441" cx="21" cy="21" r="21" fill="#fad24d"/>
        <path id="Path_54434" data-name="Path 54434" d="M26.944,43.887c.076-3.232.163-9.09-.161-10.166-.453-1.5-3.282-2.962-3.4-4.124s-1.817-3.431-1.817-4.82.259-4.985.287-5.722a31.542,31.542,0,0,1,1.46-4.562c.283-.737,1.516-.085,1.856.51a7.18,7.18,0,0,1,.567,1.488,24.482,24.482,0,0,1,.114-4.86c.593-2.223,1.372-4.8,2.529-5.408a1.429,1.429,0,0,1,1.566,1.284,10.589,10.589,0,0,1-.793,2.805l-.354,4.8s.68-3.882.85-4.392,1.6-3.118,1.771-3.982a3.533,3.533,0,0,1,.879-1.8c.248-.184,1.743.227,1.814.893a6.477,6.477,0,0,1-.241,2.21c-.156.4-1.445,5-1.445,5l.042,3.57.177.864a23.6,23.6,0,0,0,.645-3.244,12.607,12.607,0,0,1,.85-2.791,42.479,42.479,0,0,1,2.125-4.662c.439-.553,1.46.071,1.46.921a18.582,18.582,0,0,1-.439,2.763s-.782,2.777-.981,3.768a41.154,41.154,0,0,0-.181,4.478s1.133-3.684,1.218-3.9,2.36-2.885,2.87-3.395,1.352.278,1.253.944-.694,1.885-.949,2.791S39.1,18.3,39.1,19.011a41.767,41.767,0,0,1-.708,6.6c-.51,2.267-.737,5.214-1.7,7.028-.718,1.351.1,7.768.57,10.953a21.135,21.135,0,0,1-10.318.292Z" transform="translate(-10.522 -2.389)" fill="#ff5b62"/>
        <path id="Path_54435" data-name="Path 54435" d="M2.088,23.159H39.913a21.065,21.065,0,0,1,1.2,15.177H.884a21.065,21.065,0,0,1,1.2-15.177Z" transform="translate(0 -11.297)" fill="#21d0c3"/>
        <path id="Path_54436" data-name="Path 54436" d="M23.5,23.159h.728a1.978,1.978,0,0,1,.944.752A7.18,7.18,0,0,1,25.74,25.4s-.067-1.065-.073-2.24h3.2l-.064.865s.062-.355.154-.865h3.488l.028,2.367.177.864a24.231,24.231,0,0,0,.645-3.231H36.3a41.686,41.686,0,0,0-.178,4.464s1.133-3.684,1.218-3.9a5.166,5.166,0,0,1,.428-.567h3.056c-.119.315-.231.626-.31.907-.255.907-1.417,3.146-1.417,3.854a41.767,41.767,0,0,1-.708,6.6c-.264,1.173-.452,2.528-.706,3.814H23.362c-.242-1.2-1.791-3.327-1.791-4.651,0-1.389.259-4.985.287-5.722A31.542,31.542,0,0,1,23.317,23.4a.5.5,0,0,1,.185-.242Z" transform="translate(-10.522 -11.297)" fill="#15bdb2"/>
        <g id="Group_119139" data-name="Group 119139" transform="translate(0.769 11.861)">
          <path id="Path_54437" data-name="Path 54437" d="M41.964,51.823H37.058a1.073,1.073,0,0,1,.876-.957,1.3,1.3,0,0,1,1.414.385c.229-.276.79-.293,1.441-.091s1.1.377,1.175.663Z" transform="translate(-18.846 -36.645)" fill="#fefefe"/>
          <path id="Path_54438" data-name="Path 54438" d="M29.479,47.542H26.568a4.058,4.058,0,0,0-.609-1.562c-.945-1.621-1.9-2.991-1.7-3.444s.614-.07,1.3-.242.732-.493.9,0-.213,1.128.021,1.788a4.012,4.012,0,0,0,1.892,2.541c.611.332,1.051.628,1.113.918Z" transform="translate(-12.59 -32.365)" fill="#fefefe"/>
          <path id="Path_54439" data-name="Path 54439" d="M25.585,32.921c-.387-.343-1.527-.341-1.6.158s.106,1.677,0,2.666-.133,1.344-.4,1.586.1.45.638.414a3.39,3.39,0,0,0,1.283-.112c.488-.2.488-.43.08-.944a2.8,2.8,0,0,1-.292-2.432C25.608,33.441,25.9,33.2,25.585,32.921Z" transform="translate(-12.232 -27.803)" fill="#fefefe"/>
          <path id="Path_54440" data-name="Path 54440" d="M24.519,29.015c.058-.275.473-.2.67-1s.64-1.714.4-2.084.08-.657.523-.294.416,1.692.133,2.228-.2.634.036.838.452.582-.159.567-.709-.161-1.107-.1S24.5,29.1,24.519,29.015Z" transform="translate(-12.729 -24.283)" fill="#fefefe"/>
          <path id="Path_54441" data-name="Path 54441" d="M33.162,42.16H31.654c-.583-.317-.63-.875-.677-2-.053-1.269-.638-5.437-.762-6.464s-.478-1.269-.372-1.84.478-.939,1.488-.849,1.045.5,1.062,1.359-.035,4.3,0,5.6a4.218,4.218,0,0,0,1.05,2.456c.287.466.241.691.071,1.327a.778.778,0,0,1-.353.4Z" transform="translate(-15.317 -26.982)" fill="#fefefe"/>
          <path id="Path_54442" data-name="Path 54442" d="M30.31,23.158h1.5c-.028.9-.329,1.735.247,2.684.587.967.351,1.492-.113,1.382a3.575,3.575,0,0,0-1.709-.052c-.389.142-.646.036-.726-.138s.5-.6.514-1.216c.007-.469.263-1.778.287-2.662h0Z" transform="translate(-15.16 -23.157)" fill="#fefefe"/>
          <path id="Path_54443" data-name="Path 54443" d="M38.87,40.463c-.756-.153-.98-.347-1.355-.168s-.59.484-.977.035a1.286,1.286,0,0,1,.017-1.423c.331-.68.083-3.179.039-3.98s-.6-3.542-.305-4.161A1.435,1.435,0,0,1,38,29.814c.992.166,1.115,1.239.584,3.081s-.452,5.349,0,5.634c.885.559,1.052,2.089.283,1.933Z" transform="translate(-18.429 -26.389)" fill="#fefefe"/>
          <path id="Path_54444" data-name="Path 54444" d="M37.393,23.159h1.74c-.021.854,0,1.688.013,2.065.036.831.779,1.375-.23,1.327s-2.02.476-2.1-.134.456-.967.562-2.855q.011-.206.018-.4Z" transform="translate(-18.722 -23.158)" fill="#fefefe"/>
          <path id="Path_54445" data-name="Path 54445" d="M43.692,38.018c-.137.7-.266,1.254.142,1.767s-.266,1.012-.46,1.178a1.2,1.2,0,0,1-1.753-.529c-.46-1.042.3-.664.655-2.839a13.236,13.236,0,0,0,.248-4.516c-.213-.83.248-1.571,1.364-1.525s1.488.891.868,2.145a20.079,20.079,0,0,0-1.062,4.32h0Z" transform="translate(-21.002 -27.252)" fill="#fefefe"/>
          <path id="Path_54446" data-name="Path 54446" d="M45.076,23.159h1.292a1.792,1.792,0,0,0-.205.968c.061,1.409.008,2.389.035,2.677.082.865.053.922-.827.708s-1.42.426-1.594-.338.557-.389,1.029-2.423a11.214,11.214,0,0,0,.268-1.592Z" transform="translate(-22.111 -23.158)" fill="#fefefe"/>
          <path id="Path_54447" data-name="Path 54447" d="M47.733,41.154a2.006,2.006,0,0,0-.044,1.556c.177.574-.425,1.412-1.789,1.027s-.771-1.8-.292-2.137.748-.989,1.193-2.462-.061-2.569.451-3.17c.425-.5.828-.612,1.771-.473.821.121.756,1.218.136,1.868s-1.284,3.4-1.426,3.791Z" transform="translate(-22.749 -29.149)" fill="#fefefe"/>
          <path id="Path_54448" data-name="Path 54448" d="M52.494,24.329l.871-.291a.605.605,0,0,0,.013.386,1.693,1.693,0,0,1,.057,1.68c-.392.771.267,2.472.41,2.819s-.766.464-.9.472c-.632.039-1.083-.044-.992-.419a2.765,2.765,0,0,0,.393-1.585c-.028-1.123-.3-1.5-.174-1.993.065-.257.2-.674.321-1.07Z" transform="translate(-26.107 -23.587)" fill="#fefefe"/>
          <path id="Path_54449" data-name="Path 54449" d="M2.82,23.159H40.645q.094.2.185.393H2.635c.061-.132.122-.263.185-.393ZM41.963,37.943q-.055.2-.114.393H1.615q-.059-.2-.114-.393Z" transform="translate(-1.502 -23.158)" fill="#fefefe"/>
          <path id="Path_54450" data-name="Path 54450" d="M49.736,27.422a.242.242,0,0,0-.011.483h.216l.021,0,.02,0,.02,0,.02,0,.02,0,.021,0,.02,0,.02,0,.021,0,.02,0,.02,0,.02,0,.02,0,.02,0,.02,0,.02,0,.019,0,.02,0,.019,0,.02,0,.019,0,.02,0,.019,0,.019,0,.02,0,.019,0,.019,0,.019,0,.019,0,.02,0,.019,0,.019,0,.019.005.019.005.018,0a.242.242,0,0,0,.133-.465h0l-.018,0-.022-.006-.022-.006-.022-.006-.022-.006-.022-.006-.022-.006-.022-.005-.022-.005-.022-.005-.022,0-.023,0-.022,0-.022,0-.023,0-.022,0-.023,0-.023,0-.023,0-.023,0-.022,0-.022,0-.023,0-.023,0-.023,0-.023,0-.022,0-.023,0-.023,0-.023,0-.023,0-.023,0-.023,0-.023,0-.023,0-.023,0h-.217Zm-1.084.673a.242.242,0,0,0-.166-.454l-.01,0-.022.008-.021.008-.021.008-.021.008-.02.008-.022.009-.021.008-.02.008-.021.009-.021.009-.02.009-.02.009-.02.009-.02.01-.02.01-.02.01-.021.01-.02.01-.02.01-.02.01-.02.01-.02.01-.02.011-.019.011-.02.011-.019.011-.019.011-.019.011-.019.011-.019.011-.019.011-.019.012-.018.011-.019.011-.019.012L47.76,28l-.019.012-.019.012-.018.012-.019.012-.019.013-.018.013-.018.013-.018.013-.018.013-.018.013,0,0a.242.242,0,0,0,.286.39h0l0,0,.016-.011.016-.011.016-.011.016-.011.016-.011.016-.011.016-.011.017-.011.016-.01.016-.01.016-.011.016-.01.017-.01.017-.01.016-.01.016-.01.017-.01.017-.01.017-.01.017-.01.017-.01.016-.009.017-.009.017-.009.017-.009.017-.009.017-.009.017-.009.017-.009.017-.008.017-.008.017-.008.017-.008.018-.008.018-.008.018-.008.017-.008.017-.007.019-.008.018-.008.017-.007.018-.007.018-.007.018-.007.018-.007.017-.006.01,0h0Zm-1.682,1.42a.242.242,0,0,0-.421-.238l.075.043Zm-.421-.238,0,0-.011.019-.011.019-.011.02-.011.019-.011.02-.01.02-.01.02-.01.02-.01.02-.01.02-.01.021-.01.02-.01.02-.01.021-.009.02-.009.02-.009.02-.009.021-.009.021-.008.02-.008.021-.009.022-.008.021-.008.021-.008.021-.008.021-.008.022-.008.021-.008.021-.007.021-.007.021-.007.021-.007.022-.007.021L46.238,30l-.007.022-.006.021-.006.022-.006.022-.006.022-.006.022-.006.022-.006.022-.006.022-.006.022-.005.022v0a.242.242,0,0,0,.444.178.253.253,0,0,0,.027-.069h0l-.471-.109m.472.108,0-.019,0-.019,0-.02,0-.019,0-.019.005-.019.005-.019.005-.019.006-.019.006-.019.006-.018.006-.019.006-.019.006-.018.006-.019.006-.019.006-.018.007-.019.006-.018.006-.017.007-.018.007-.018.007-.018.007-.018.007-.017.008-.018.008-.019.007-.017.008-.017.008-.018.008-.018.008-.018.008-.017.008-.017.008-.017.008-.017.009-.017.009-.017.009-.017.009-.017.009-.017.009-.017.009-.017.009-.016.01-.017.01-.017,0,0m-.358,2.173a.242.242,0,0,0-.479.053.3.3,0,0,0,0,.038Zm-.475.091h0l0,.023,0,.022,0,.022,0,.023,0,.022.005.022.005.022.005.022.006.022.006.022.006.022.006.022.006.022.006.022.006.022.006.022.006.021.007.022.007.021.007.021.007.022.007.021.007.021.007.021.008.021.008.021.008.022.008.021.008.021.008.021.008.021.009.022.008.021.008.02.009.021.009.021.009.02.009.02.009.02.01.021.01.02.01.02.01.021.01.02.01.02.01.02v0a.242.242,0,0,0,.441-.2l-.011-.025h0l-.429.222m.429-.223-.008-.017-.009-.017-.009-.017-.008-.017-.008-.017-.008-.017-.008-.017-.008-.018-.008-.018-.008-.018-.008-.017-.007-.017L46.8,32.3l-.008-.018-.007-.017-.007-.018-.007-.018-.007-.018-.007-.018-.006-.017-.006-.018-.007-.019-.006-.018-.006-.019-.006-.019-.006-.018-.006-.019-.006-.019-.006-.018-.006-.019-.006-.019-.005-.019-.005-.019-.005-.019,0-.019,0-.019,0-.02,0-.019,0-.019,0-.019,0-.019,0-.02,0-.019,0-.019,0-.02,0-.019h0m1.138,1.884a.242.242,0,0,0-.3.376l0,0,.007.005.017.013.017.013.018.014.018.014.017.013.017.013.018.013.018.013.018.013.018.013.018.013.018.013.019.013.019.012.018.012.019.012.019.012.019.012.019.012.019.011.018.011.019.012.019.011.019.011.019.011.019.011.019.011.019.011.02.011.019.011.02.011.02.01.02.01.02.01.02.01.02.01.021.01.02.01.02.01.021.01.02.009.02.009.02.009.021.009.021.009.02.008.008,0a.242.242,0,0,0,.207-.436l-.024-.011-.006,0-.019-.008-.017-.007L48.466,34l-.018-.008-.018-.008-.018-.008-.017-.008-.017-.008-.017-.008-.017-.008-.017-.009-.017-.009-.017-.009-.017-.009-.017-.009-.017-.009-.017-.009-.016-.009-.017-.01-.017-.01-.017-.01-.017-.01-.017-.01-.016-.01-.016-.01-.017-.01-.017-.01-.016-.01-.016-.011-.016-.01-.016-.01-.017-.011-.016-.011-.016-.011L47.93,33.7l-.016-.011-.016-.011-.016-.011-.016-.011-.015-.011-.016-.012-.015-.011-.015-.011-.015-.011-.015-.012-.016-.012-.007-.005Zm2.087.694a.242.242,0,0,0,.017.483h.116l.023,0h.023l.023,0,.023,0,.023,0,.023,0,.023,0,.023,0,.022,0,.023,0,.023,0,.023,0,.023,0,.022,0,.022,0,.023,0,.023,0,.023,0,.023,0,.022,0,.023,0,.022,0,.022,0,.023,0,.022,0,.022-.005.022-.005.022-.005.022-.006.022-.006.022-.006.022-.006.022-.006.022-.006.022-.006.022-.006.021-.006.022-.007.021-.007.021-.007.005,0a.242.242,0,0,0-.127-.466l-.025.007h0l-.019.006-.019.006-.018.006-.019.006-.019.006-.019.005-.019.005-.019.005-.019,0-.019,0-.02,0-.019,0-.019,0-.019,0-.019,0-.02,0-.019,0-.019,0-.02,0-.019,0-.02,0-.019,0-.02,0-.019,0-.02,0-.02,0-.02,0-.02,0-.02,0-.02,0-.02,0-.021,0-.02,0-.02,0-.021,0-.02,0-.02,0-.02,0-.02,0-.021,0h-.1Zm2.039-.828a.242.242,0,0,0,.327.356l.011-.01.016-.015.016-.015.016-.015.016-.016L52.3,33.7l.016-.016.016-.016.016-.016.016-.016.015-.015.016-.016.015-.016.015-.016.015-.016.015-.016.015-.016.015-.017.014-.016.015-.017.014-.017.014-.017.014-.017.014-.017.014-.017.014-.017.014-.017.013-.017.013-.017.014-.018.014-.018.013-.017.013-.017.013-.018.013-.018.013-.018.013-.018.013-.018.013-.018.013-.019.012-.019.012-.018.012-.019.012-.019.012-.019.012-.019L52.858,33l0-.007a.242.242,0,0,0-.382-.292.282.282,0,0,0-.031.04l0,.006-.01.017-.01.016-.011.016-.01.016-.01.016-.011.017-.011.016-.011.016-.011.016-.011.016-.011.016-.011.016-.011.016-.011.015-.012.016L52.272,33l-.011.015-.011.015-.012.015-.012.016-.012.015-.012.014-.013.015-.012.015-.012.014-.013.015-.012.014-.013.014-.013.014-.013.014-.013.014-.013.014-.013.014-.013.014-.013.014-.013.014-.014.014L52,33.318l-.013.013-.013.013-.014.013-.014.014-.014.013-.014.013-.014.013-.014.013-.011.01h0Zm1.014-1.952a.242.242,0,0,0,.479.063v-.006l0-.012,0-.022,0-.023,0-.023,0-.023,0-.023,0-.023,0-.023,0-.023v-.023l0-.023v-.424l0-.023v-.023l0-.023,0-.023,0-.023,0-.023,0-.023,0-.023,0-.023,0-.022,0-.023,0-.023,0-.023,0-.023,0-.022,0-.017a.242.242,0,0,0-.478.075l0,.015,0,.02,0,.02,0,.02,0,.02,0,.02,0,.021,0,.02,0,.02,0,.021,0,.02v.02l0,.02,0,.02v.451l0,.02,0,.02v.02l0,.02,0,.021,0,.02,0,.02,0,.021,0,.012Zm-.5-2.143a.242.242,0,1,0,.4-.268l-.011-.016-.012-.019-.013-.019L52.749,29l-.013-.018-.013-.018-.013-.018-.013-.018-.013-.018-.013-.017-.013-.017-.014-.018-.014-.018-.013-.017L52.6,28.8l-.014-.017-.014-.017-.014-.017-.014-.017-.014-.017-.014-.017-.014-.017-.015-.017-.014-.016-.015-.017-.015-.016-.015-.016-.015-.016-.015-.016-.015-.016-.016-.016-.015-.015-.016-.016-.016-.016-.016-.016-.016-.016-.015-.015-.016-.016-.016-.015-.016-.015-.016-.015-.016-.015-.016-.015-.017-.015-.016-.014-.017-.015-.017-.014,0,0a.242.242,0,0,0-.361.313.265.265,0,0,0,.048.056h0l.014.012.014.013.014.013.014.013.014.013.014.013.014.013.014.013.014.013.014.013.014.014.014.013.013.013.013.013.013.014.014.014.013.014.013.014.013.014.013.014.013.014.013.014.013.014.013.014L52.14,29l.012.014.013.015.012.014.012.015.013.015.012.014.012.015.012.016.012.015.011.015.011.015.011.015.012.016.011.015.011.016.011.016.011.016.011.016.011.016.011.016.011.016.011.016Z" transform="translate(-23.274 -25.237)" fill="#fefefe"/>
        </g>
      </g>
    </g>
  </svg>
  